<mxfile host="app.diagrams.net" agent="Mozilla/5.0 (Macintosh; Intel Mac OS X 10_15_7) AppleWebKit/537.36 (KHTML, like Gecko) Chrome/131.0.0.0 Safari/537.36" version="26.0.3">
  <diagram id="R2lEEEUBdFMjLlhIrx00" name="Page-1">
    <mxGraphModel dx="2445" dy="655" grid="1" gridSize="10" guides="1" tooltips="1" connect="1" arrows="1" fold="1" page="1" pageScale="1" pageWidth="850" pageHeight="1100" math="0" shadow="0" extFonts="Permanent Marker^https://fonts.googleapis.com/css?family=Permanent+Marker">
      <root>
        <mxCell id="0" />
        <mxCell id="1" parent="0" />
        <mxCell id="C-vyLk0tnHw3VtMMgP7b-23" value="users_data" style="shape=table;startSize=30;container=1;collapsible=1;childLayout=tableLayout;fixedRows=1;rowLines=0;fontStyle=1;align=center;resizeLast=1;" parent="1" vertex="1">
          <mxGeometry x="-70" y="70" width="200" height="230" as="geometry" />
        </mxCell>
        <mxCell id="C-vyLk0tnHw3VtMMgP7b-24" value="" style="shape=partialRectangle;collapsible=0;dropTarget=0;pointerEvents=0;fillColor=none;points=[[0,0.5],[1,0.5]];portConstraint=eastwest;top=0;left=0;right=0;bottom=1;fontStyle=1" parent="C-vyLk0tnHw3VtMMgP7b-23" vertex="1">
          <mxGeometry y="30" width="200" height="30" as="geometry" />
        </mxCell>
        <mxCell id="C-vyLk0tnHw3VtMMgP7b-25" value="var" style="shape=partialRectangle;overflow=hidden;connectable=0;fillColor=none;top=0;left=0;bottom=0;right=0;fontStyle=1" parent="C-vyLk0tnHw3VtMMgP7b-24" vertex="1">
          <mxGeometry width="80" height="30" as="geometry">
            <mxRectangle width="80" height="30" as="alternateBounds" />
          </mxGeometry>
        </mxCell>
        <mxCell id="C-vyLk0tnHw3VtMMgP7b-26" value="format" style="shape=partialRectangle;overflow=hidden;connectable=0;fillColor=none;top=0;left=0;bottom=0;right=0;align=left;spacingLeft=6;fontStyle=1" parent="C-vyLk0tnHw3VtMMgP7b-24" vertex="1">
          <mxGeometry x="80" width="120" height="30" as="geometry">
            <mxRectangle width="120" height="30" as="alternateBounds" />
          </mxGeometry>
        </mxCell>
        <mxCell id="C-vyLk0tnHw3VtMMgP7b-27" value="" style="shape=partialRectangle;collapsible=0;dropTarget=0;pointerEvents=0;fillColor=none;points=[[0,0.5],[1,0.5]];portConstraint=eastwest;top=0;left=0;right=0;bottom=0;" parent="C-vyLk0tnHw3VtMMgP7b-23" vertex="1">
          <mxGeometry y="60" width="200" height="170" as="geometry" />
        </mxCell>
        <mxCell id="C-vyLk0tnHw3VtMMgP7b-28" value="" style="shape=partialRectangle;overflow=hidden;connectable=0;fillColor=none;top=0;left=0;bottom=0;right=0;strokeColor=#000000;" parent="C-vyLk0tnHw3VtMMgP7b-27" vertex="1">
          <mxGeometry width="80" height="170" as="geometry">
            <mxRectangle width="80" height="170" as="alternateBounds" />
          </mxGeometry>
        </mxCell>
        <mxCell id="C-vyLk0tnHw3VtMMgP7b-29" value="" style="shape=partialRectangle;overflow=hidden;connectable=0;fillColor=none;top=0;left=0;bottom=0;right=0;align=left;spacingLeft=6;" parent="C-vyLk0tnHw3VtMMgP7b-27" vertex="1">
          <mxGeometry x="80" width="120" height="170" as="geometry">
            <mxRectangle width="120" height="170" as="alternateBounds" />
          </mxGeometry>
        </mxCell>
        <mxCell id="vaAXvCSD8EfvLSItamrr-2" value="state" style="shape=partialRectangle;overflow=hidden;connectable=0;fillColor=none;top=0;left=0;bottom=0;right=0;" vertex="1" parent="1">
          <mxGeometry x="-64" y="153" width="30" height="30" as="geometry">
            <mxRectangle width="30" height="30" as="alternateBounds" />
          </mxGeometry>
        </mxCell>
        <mxCell id="vaAXvCSD8EfvLSItamrr-3" value="lastLogin" style="shape=partialRectangle;overflow=hidden;connectable=0;fillColor=none;top=0;left=0;bottom=0;right=0;" vertex="1" parent="1">
          <mxGeometry x="-70" y="200" width="60" height="30" as="geometry">
            <mxRectangle width="30" height="30" as="alternateBounds" />
          </mxGeometry>
        </mxCell>
        <mxCell id="vaAXvCSD8EfvLSItamrr-4" value="createdDate" style="shape=partialRectangle;overflow=hidden;connectable=0;fillColor=none;top=0;left=0;bottom=0;right=0;" vertex="1" parent="1">
          <mxGeometry x="-87" y="176" width="110" height="30" as="geometry">
            <mxRectangle width="30" height="30" as="alternateBounds" />
          </mxGeometry>
        </mxCell>
        <mxCell id="vaAXvCSD8EfvLSItamrr-5" value="role" style="shape=partialRectangle;overflow=hidden;connectable=0;fillColor=none;top=0;left=0;bottom=0;right=0;" vertex="1" parent="1">
          <mxGeometry x="-67" y="221" width="30" height="30" as="geometry">
            <mxRectangle width="30" height="30" as="alternateBounds" />
          </mxGeometry>
        </mxCell>
        <mxCell id="vaAXvCSD8EfvLSItamrr-6" value="active" style="shape=partialRectangle;overflow=hidden;connectable=0;fillColor=none;top=0;left=0;bottom=0;right=0;" vertex="1" parent="1">
          <mxGeometry x="-62" y="246" width="30" height="30" as="geometry">
            <mxRectangle width="30" height="30" as="alternateBounds" />
          </mxGeometry>
        </mxCell>
        <mxCell id="vaAXvCSD8EfvLSItamrr-7" value="datetime" style="shape=partialRectangle;overflow=hidden;connectable=0;fillColor=none;top=0;left=0;bottom=0;right=0;align=left;spacingLeft=6;" vertex="1" parent="1">
          <mxGeometry x="13" y="200" width="70" height="30" as="geometry">
            <mxRectangle width="320" height="30" as="alternateBounds" />
          </mxGeometry>
        </mxCell>
        <mxCell id="vaAXvCSD8EfvLSItamrr-8" value="nvarchar(8)" style="shape=partialRectangle;overflow=hidden;connectable=0;fillColor=none;top=0;left=0;bottom=0;right=0;align=left;spacingLeft=6;" vertex="1" parent="1">
          <mxGeometry x="13" y="222" width="70" height="30" as="geometry">
            <mxRectangle width="320" height="30" as="alternateBounds" />
          </mxGeometry>
        </mxCell>
        <mxCell id="vaAXvCSD8EfvLSItamrr-9" value="nvarchar(10)" style="shape=partialRectangle;overflow=hidden;connectable=0;fillColor=none;top=0;left=0;bottom=0;right=0;align=left;spacingLeft=6;" vertex="1" parent="1">
          <mxGeometry x="13" y="249" width="320" height="30" as="geometry">
            <mxRectangle width="320" height="30" as="alternateBounds" />
          </mxGeometry>
        </mxCell>
        <mxCell id="vaAXvCSD8EfvLSItamrr-10" value="datetime" style="shape=partialRectangle;overflow=hidden;connectable=0;fillColor=none;top=0;left=0;bottom=0;right=0;align=left;spacingLeft=6;" vertex="1" parent="1">
          <mxGeometry x="12" y="175" width="320" height="30" as="geometry">
            <mxRectangle width="320" height="30" as="alternateBounds" />
          </mxGeometry>
        </mxCell>
        <mxCell id="vaAXvCSD8EfvLSItamrr-11" value="nvarchar(2)" style="shape=partialRectangle;overflow=hidden;connectable=0;fillColor=none;top=0;left=0;bottom=0;right=0;align=left;spacingLeft=6;" vertex="1" parent="1">
          <mxGeometry x="12" y="153" width="270" height="30" as="geometry">
            <mxRectangle width="320" height="30" as="alternateBounds" />
          </mxGeometry>
        </mxCell>
        <mxCell id="vaAXvCSD8EfvLSItamrr-16" value="_id" style="shape=partialRectangle;overflow=hidden;connectable=0;fillColor=none;top=0;left=0;bottom=0;right=0;" vertex="1" parent="1">
          <mxGeometry x="-72" y="130" width="40" height="30" as="geometry">
            <mxRectangle width="80" height="30" as="alternateBounds" />
          </mxGeometry>
        </mxCell>
        <mxCell id="vaAXvCSD8EfvLSItamrr-17" value="nvarchar(50)" style="shape=partialRectangle;overflow=hidden;connectable=0;fillColor=none;top=0;left=0;bottom=0;right=0;align=left;spacingLeft=6;" vertex="1" parent="1">
          <mxGeometry x="11" y="130" width="320" height="30" as="geometry">
            <mxRectangle width="320" height="30" as="alternateBounds" />
          </mxGeometry>
        </mxCell>
        <mxCell id="vaAXvCSD8EfvLSItamrr-64" value="" style="group" vertex="1" connectable="0" parent="1">
          <mxGeometry x="240" y="75" width="961" height="410" as="geometry" />
        </mxCell>
        <mxCell id="vaAXvCSD8EfvLSItamrr-41" value="receipts_data" style="shape=table;startSize=30;container=1;collapsible=1;childLayout=tableLayout;fixedRows=1;rowLines=0;fontStyle=1;align=center;resizeLast=1;" vertex="1" parent="vaAXvCSD8EfvLSItamrr-64">
          <mxGeometry x="19" width="400" height="410" as="geometry" />
        </mxCell>
        <mxCell id="vaAXvCSD8EfvLSItamrr-42" value="" style="shape=partialRectangle;collapsible=0;dropTarget=0;pointerEvents=0;fillColor=none;points=[[0,0.5],[1,0.5]];portConstraint=eastwest;top=0;left=0;right=0;bottom=1;fontStyle=1" vertex="1" parent="vaAXvCSD8EfvLSItamrr-41">
          <mxGeometry y="30" width="400" height="30" as="geometry" />
        </mxCell>
        <mxCell id="vaAXvCSD8EfvLSItamrr-43" value="var" style="shape=partialRectangle;overflow=hidden;connectable=0;fillColor=none;top=0;left=0;bottom=0;right=0;fontStyle=1" vertex="1" parent="vaAXvCSD8EfvLSItamrr-42">
          <mxGeometry width="170" height="30" as="geometry">
            <mxRectangle width="170" height="30" as="alternateBounds" />
          </mxGeometry>
        </mxCell>
        <mxCell id="vaAXvCSD8EfvLSItamrr-44" value="format" style="shape=partialRectangle;overflow=hidden;connectable=0;fillColor=none;top=0;left=0;bottom=0;right=0;align=left;spacingLeft=6;fontStyle=1" vertex="1" parent="vaAXvCSD8EfvLSItamrr-42">
          <mxGeometry x="170" width="230" height="30" as="geometry">
            <mxRectangle width="230" height="30" as="alternateBounds" />
          </mxGeometry>
        </mxCell>
        <mxCell id="vaAXvCSD8EfvLSItamrr-45" value="" style="shape=partialRectangle;collapsible=0;dropTarget=0;pointerEvents=0;fillColor=none;points=[[0,0.5],[1,0.5]];portConstraint=eastwest;top=0;left=0;right=0;bottom=0;" vertex="1" parent="vaAXvCSD8EfvLSItamrr-41">
          <mxGeometry y="60" width="400" height="350" as="geometry" />
        </mxCell>
        <mxCell id="vaAXvCSD8EfvLSItamrr-46" value="" style="shape=partialRectangle;overflow=hidden;connectable=0;fillColor=none;top=0;left=0;bottom=0;right=0;strokeColor=#000000;" vertex="1" parent="vaAXvCSD8EfvLSItamrr-45">
          <mxGeometry width="170" height="350" as="geometry">
            <mxRectangle width="170" height="350" as="alternateBounds" />
          </mxGeometry>
        </mxCell>
        <mxCell id="vaAXvCSD8EfvLSItamrr-47" value="" style="shape=partialRectangle;overflow=hidden;connectable=0;fillColor=none;top=0;left=0;bottom=0;right=0;align=left;spacingLeft=6;" vertex="1" parent="vaAXvCSD8EfvLSItamrr-45">
          <mxGeometry x="170" width="230" height="350" as="geometry">
            <mxRectangle width="230" height="350" as="alternateBounds" />
          </mxGeometry>
        </mxCell>
        <mxCell id="vaAXvCSD8EfvLSItamrr-48" value="_id" style="shape=partialRectangle;overflow=hidden;connectable=0;fillColor=none;top=0;left=0;bottom=0;right=0;" vertex="1" parent="vaAXvCSD8EfvLSItamrr-64">
          <mxGeometry x="19" y="58" width="40" height="30" as="geometry">
            <mxRectangle width="80" height="30" as="alternateBounds" />
          </mxGeometry>
        </mxCell>
        <mxCell id="vaAXvCSD8EfvLSItamrr-49" value="bonusPointsEarned" style="shape=partialRectangle;overflow=hidden;connectable=0;fillColor=none;top=0;left=0;bottom=0;right=0;" vertex="1" parent="vaAXvCSD8EfvLSItamrr-64">
          <mxGeometry x="22" y="80" width="120" height="30" as="geometry">
            <mxRectangle width="80" height="30" as="alternateBounds" />
          </mxGeometry>
        </mxCell>
        <mxCell id="vaAXvCSD8EfvLSItamrr-50" value="bonusPointsEarnedReason" style="shape=partialRectangle;overflow=hidden;connectable=0;fillColor=none;top=0;left=0;bottom=0;right=0;" vertex="1" parent="vaAXvCSD8EfvLSItamrr-64">
          <mxGeometry x="22" y="106" width="159" height="30" as="geometry">
            <mxRectangle width="80" height="30" as="alternateBounds" />
          </mxGeometry>
        </mxCell>
        <mxCell id="vaAXvCSD8EfvLSItamrr-51" value="createDate" style="shape=partialRectangle;overflow=hidden;connectable=0;fillColor=none;top=0;left=0;bottom=0;right=0;" vertex="1" parent="vaAXvCSD8EfvLSItamrr-64">
          <mxGeometry x="22" y="130" width="79" height="30" as="geometry">
            <mxRectangle width="80" height="30" as="alternateBounds" />
          </mxGeometry>
        </mxCell>
        <mxCell id="vaAXvCSD8EfvLSItamrr-52" value="finishedDate" style="shape=partialRectangle;overflow=hidden;connectable=0;fillColor=none;top=0;left=0;bottom=0;right=0;" vertex="1" parent="vaAXvCSD8EfvLSItamrr-64">
          <mxGeometry x="22" y="154" width="91" height="30" as="geometry">
            <mxRectangle width="80" height="30" as="alternateBounds" />
          </mxGeometry>
        </mxCell>
        <mxCell id="vaAXvCSD8EfvLSItamrr-53" value="modifyDate" style="shape=partialRectangle;overflow=hidden;connectable=0;fillColor=none;top=0;left=0;bottom=0;right=0;" vertex="1" parent="vaAXvCSD8EfvLSItamrr-64">
          <mxGeometry x="22" y="180" width="79" height="30" as="geometry">
            <mxRectangle width="80" height="30" as="alternateBounds" />
          </mxGeometry>
        </mxCell>
        <mxCell id="vaAXvCSD8EfvLSItamrr-54" value="pointsAwardedDate" style="shape=partialRectangle;overflow=hidden;connectable=0;fillColor=none;top=0;left=0;bottom=0;right=0;" vertex="1" parent="vaAXvCSD8EfvLSItamrr-64">
          <mxGeometry x="16.5" y="206" width="139" height="30" as="geometry">
            <mxRectangle width="80" height="30" as="alternateBounds" />
          </mxGeometry>
        </mxCell>
        <mxCell id="vaAXvCSD8EfvLSItamrr-55" value="pointsEarned" style="shape=partialRectangle;overflow=hidden;connectable=0;fillColor=none;top=0;left=0;bottom=0;right=0;" vertex="1" parent="vaAXvCSD8EfvLSItamrr-64">
          <mxGeometry y="233" width="139" height="30" as="geometry">
            <mxRectangle width="80" height="30" as="alternateBounds" />
          </mxGeometry>
        </mxCell>
        <mxCell id="vaAXvCSD8EfvLSItamrr-56" value="purchaseDate" style="shape=partialRectangle;overflow=hidden;connectable=0;fillColor=none;top=0;left=0;bottom=0;right=0;" vertex="1" parent="vaAXvCSD8EfvLSItamrr-64">
          <mxGeometry x="1.5" y="260" width="139" height="30" as="geometry">
            <mxRectangle width="80" height="30" as="alternateBounds" />
          </mxGeometry>
        </mxCell>
        <mxCell id="vaAXvCSD8EfvLSItamrr-57" value="purchasedItemCount" style="shape=partialRectangle;overflow=hidden;connectable=0;fillColor=none;top=0;left=0;bottom=0;right=0;" vertex="1" parent="vaAXvCSD8EfvLSItamrr-64">
          <mxGeometry x="3.5" y="286" width="167.5" height="30" as="geometry">
            <mxRectangle width="80" height="30" as="alternateBounds" />
          </mxGeometry>
        </mxCell>
        <mxCell id="vaAXvCSD8EfvLSItamrr-58" value="rewardsReceiptItemList" style="shape=partialRectangle;overflow=hidden;connectable=0;fillColor=none;top=0;left=0;bottom=0;right=0;" vertex="1" parent="vaAXvCSD8EfvLSItamrr-64">
          <mxGeometry x="10.5" y="310" width="167.5" height="30" as="geometry">
            <mxRectangle width="80" height="30" as="alternateBounds" />
          </mxGeometry>
        </mxCell>
        <mxCell id="vaAXvCSD8EfvLSItamrr-59" value="rewardsReceiptStatus" style="shape=partialRectangle;overflow=hidden;connectable=0;fillColor=none;top=0;left=0;bottom=0;right=0;" vertex="1" parent="vaAXvCSD8EfvLSItamrr-64">
          <mxGeometry x="7.5" y="333" width="167.5" height="30" as="geometry">
            <mxRectangle width="80" height="30" as="alternateBounds" />
          </mxGeometry>
        </mxCell>
        <mxCell id="vaAXvCSD8EfvLSItamrr-60" value="totalSpent" style="shape=partialRectangle;overflow=hidden;connectable=0;fillColor=none;top=0;left=0;bottom=0;right=0;" vertex="1" parent="vaAXvCSD8EfvLSItamrr-64">
          <mxGeometry x="7.5" y="356" width="103.5" height="30" as="geometry">
            <mxRectangle width="80" height="30" as="alternateBounds" />
          </mxGeometry>
        </mxCell>
        <mxCell id="vaAXvCSD8EfvLSItamrr-61" value="userId" style="shape=partialRectangle;overflow=hidden;connectable=0;fillColor=none;top=0;left=0;bottom=0;right=0;" vertex="1" parent="vaAXvCSD8EfvLSItamrr-64">
          <mxGeometry x="18" y="385" width="60" height="30" as="geometry">
            <mxRectangle width="80" height="30" as="alternateBounds" />
          </mxGeometry>
        </mxCell>
        <mxCell id="vaAXvCSD8EfvLSItamrr-95" value="nvarchar(50)" style="shape=partialRectangle;overflow=hidden;connectable=0;fillColor=none;top=0;left=0;bottom=0;right=0;align=left;spacingLeft=6;" vertex="1" parent="vaAXvCSD8EfvLSItamrr-64">
          <mxGeometry x="195" y="58" width="320" height="30" as="geometry">
            <mxRectangle width="320" height="30" as="alternateBounds" />
          </mxGeometry>
        </mxCell>
        <mxCell id="vaAXvCSD8EfvLSItamrr-96" value="nvarchar(50)" style="shape=partialRectangle;overflow=hidden;connectable=0;fillColor=none;top=0;left=0;bottom=0;right=0;align=left;spacingLeft=6;" vertex="1" parent="vaAXvCSD8EfvLSItamrr-64">
          <mxGeometry x="194" y="83" width="320" height="30" as="geometry">
            <mxRectangle width="320" height="30" as="alternateBounds" />
          </mxGeometry>
        </mxCell>
        <mxCell id="vaAXvCSD8EfvLSItamrr-98" value="datetime" style="shape=partialRectangle;overflow=hidden;connectable=0;fillColor=none;top=0;left=0;bottom=0;right=0;align=left;spacingLeft=6;" vertex="1" parent="vaAXvCSD8EfvLSItamrr-64">
          <mxGeometry x="194" y="130" width="320" height="30" as="geometry">
            <mxRectangle width="320" height="30" as="alternateBounds" />
          </mxGeometry>
        </mxCell>
        <mxCell id="vaAXvCSD8EfvLSItamrr-99" value="datetime" style="shape=partialRectangle;overflow=hidden;connectable=0;fillColor=none;top=0;left=0;bottom=0;right=0;align=left;spacingLeft=6;" vertex="1" parent="vaAXvCSD8EfvLSItamrr-64">
          <mxGeometry x="194" y="154" width="320" height="30" as="geometry">
            <mxRectangle width="320" height="30" as="alternateBounds" />
          </mxGeometry>
        </mxCell>
        <mxCell id="vaAXvCSD8EfvLSItamrr-100" value="datetime" style="shape=partialRectangle;overflow=hidden;connectable=0;fillColor=none;top=0;left=0;bottom=0;right=0;align=left;spacingLeft=6;" vertex="1" parent="vaAXvCSD8EfvLSItamrr-64">
          <mxGeometry x="194" y="180" width="320" height="30" as="geometry">
            <mxRectangle width="320" height="30" as="alternateBounds" />
          </mxGeometry>
        </mxCell>
        <mxCell id="vaAXvCSD8EfvLSItamrr-101" value="datetime" style="shape=partialRectangle;overflow=hidden;connectable=0;fillColor=none;top=0;left=0;bottom=0;right=0;align=left;spacingLeft=6;" vertex="1" parent="vaAXvCSD8EfvLSItamrr-64">
          <mxGeometry x="195" y="206" width="320" height="30" as="geometry">
            <mxRectangle width="320" height="30" as="alternateBounds" />
          </mxGeometry>
        </mxCell>
        <mxCell id="vaAXvCSD8EfvLSItamrr-102" value="integer" style="shape=partialRectangle;overflow=hidden;connectable=0;fillColor=none;top=0;left=0;bottom=0;right=0;align=left;spacingLeft=6;" vertex="1" parent="vaAXvCSD8EfvLSItamrr-64">
          <mxGeometry x="194" y="236" width="320" height="30" as="geometry">
            <mxRectangle width="320" height="30" as="alternateBounds" />
          </mxGeometry>
        </mxCell>
        <mxCell id="vaAXvCSD8EfvLSItamrr-103" value="float" style="shape=partialRectangle;overflow=hidden;connectable=0;fillColor=none;top=0;left=0;bottom=0;right=0;align=left;spacingLeft=6;" vertex="1" parent="vaAXvCSD8EfvLSItamrr-64">
          <mxGeometry x="194" y="286" width="320" height="30" as="geometry">
            <mxRectangle width="320" height="30" as="alternateBounds" />
          </mxGeometry>
        </mxCell>
        <mxCell id="vaAXvCSD8EfvLSItamrr-104" value="datetime" style="shape=partialRectangle;overflow=hidden;connectable=0;fillColor=none;top=0;left=0;bottom=0;right=0;align=left;spacingLeft=6;" vertex="1" parent="vaAXvCSD8EfvLSItamrr-64">
          <mxGeometry x="194" y="260" width="320" height="30" as="geometry">
            <mxRectangle width="320" height="30" as="alternateBounds" />
          </mxGeometry>
        </mxCell>
        <mxCell id="vaAXvCSD8EfvLSItamrr-105" value="nvarchar(50)" style="shape=partialRectangle;overflow=hidden;connectable=0;fillColor=none;top=0;left=0;bottom=0;right=0;align=left;spacingLeft=6;" vertex="1" parent="vaAXvCSD8EfvLSItamrr-64">
          <mxGeometry x="194" y="310" width="320" height="30" as="geometry">
            <mxRectangle width="320" height="30" as="alternateBounds" />
          </mxGeometry>
        </mxCell>
        <mxCell id="vaAXvCSD8EfvLSItamrr-106" value="nvarchar(50)" style="shape=partialRectangle;overflow=hidden;connectable=0;fillColor=none;top=0;left=0;bottom=0;right=0;align=left;spacingLeft=6;" vertex="1" parent="vaAXvCSD8EfvLSItamrr-64">
          <mxGeometry x="194" y="340" width="320" height="30" as="geometry">
            <mxRectangle width="320" height="30" as="alternateBounds" />
          </mxGeometry>
        </mxCell>
        <mxCell id="vaAXvCSD8EfvLSItamrr-107" value="float" style="shape=partialRectangle;overflow=hidden;connectable=0;fillColor=none;top=0;left=0;bottom=0;right=0;align=left;spacingLeft=6;" vertex="1" parent="vaAXvCSD8EfvLSItamrr-64">
          <mxGeometry x="195" y="363" width="320" height="30" as="geometry">
            <mxRectangle width="320" height="30" as="alternateBounds" />
          </mxGeometry>
        </mxCell>
        <mxCell id="vaAXvCSD8EfvLSItamrr-108" value="nvarchar(50)" style="shape=partialRectangle;overflow=hidden;connectable=0;fillColor=none;top=0;left=0;bottom=0;right=0;align=left;spacingLeft=6;" vertex="1" parent="vaAXvCSD8EfvLSItamrr-64">
          <mxGeometry x="193" y="383" width="320" height="30" as="geometry">
            <mxRectangle width="320" height="30" as="alternateBounds" />
          </mxGeometry>
        </mxCell>
        <mxCell id="vaAXvCSD8EfvLSItamrr-65" value="" style="group" vertex="1" connectable="0" parent="vaAXvCSD8EfvLSItamrr-64">
          <mxGeometry x="533" y="9.5" width="441" height="271" as="geometry" />
        </mxCell>
        <mxCell id="vaAXvCSD8EfvLSItamrr-18" value="brand_data" style="shape=table;startSize=30;container=1;collapsible=1;childLayout=tableLayout;fixedRows=1;rowLines=0;fontStyle=1;align=center;resizeLast=1;" vertex="1" parent="vaAXvCSD8EfvLSItamrr-65">
          <mxGeometry x="36" y="-6" width="400" height="260" as="geometry" />
        </mxCell>
        <mxCell id="vaAXvCSD8EfvLSItamrr-19" value="" style="shape=partialRectangle;collapsible=0;dropTarget=0;pointerEvents=0;fillColor=none;points=[[0,0.5],[1,0.5]];portConstraint=eastwest;top=0;left=0;right=0;bottom=1;fontStyle=1" vertex="1" parent="vaAXvCSD8EfvLSItamrr-18">
          <mxGeometry y="30" width="400" height="30" as="geometry" />
        </mxCell>
        <mxCell id="vaAXvCSD8EfvLSItamrr-20" value="var" style="shape=partialRectangle;overflow=hidden;connectable=0;fillColor=none;top=0;left=0;bottom=0;right=0;fontStyle=1" vertex="1" parent="vaAXvCSD8EfvLSItamrr-19">
          <mxGeometry width="87" height="30" as="geometry">
            <mxRectangle width="87" height="30" as="alternateBounds" />
          </mxGeometry>
        </mxCell>
        <mxCell id="vaAXvCSD8EfvLSItamrr-21" value="format" style="shape=partialRectangle;overflow=hidden;connectable=0;fillColor=none;top=0;left=0;bottom=0;right=0;align=left;spacingLeft=6;fontStyle=1" vertex="1" parent="vaAXvCSD8EfvLSItamrr-19">
          <mxGeometry x="87" width="313" height="30" as="geometry">
            <mxRectangle width="313" height="30" as="alternateBounds" />
          </mxGeometry>
        </mxCell>
        <mxCell id="vaAXvCSD8EfvLSItamrr-22" value="" style="shape=partialRectangle;collapsible=0;dropTarget=0;pointerEvents=0;fillColor=none;points=[[0,0.5],[1,0.5]];portConstraint=eastwest;top=0;left=0;right=0;bottom=0;" vertex="1" parent="vaAXvCSD8EfvLSItamrr-18">
          <mxGeometry y="60" width="400" height="200" as="geometry" />
        </mxCell>
        <mxCell id="vaAXvCSD8EfvLSItamrr-23" value="" style="shape=partialRectangle;overflow=hidden;connectable=0;fillColor=none;top=0;left=0;bottom=0;right=0;strokeColor=#000000;" vertex="1" parent="vaAXvCSD8EfvLSItamrr-22">
          <mxGeometry width="87" height="200" as="geometry">
            <mxRectangle width="87" height="200" as="alternateBounds" />
          </mxGeometry>
        </mxCell>
        <mxCell id="vaAXvCSD8EfvLSItamrr-24" value="" style="shape=partialRectangle;overflow=hidden;connectable=0;fillColor=none;top=0;left=0;bottom=0;right=0;align=left;spacingLeft=6;" vertex="1" parent="vaAXvCSD8EfvLSItamrr-22">
          <mxGeometry x="87" width="313" height="200" as="geometry">
            <mxRectangle width="313" height="200" as="alternateBounds" />
          </mxGeometry>
        </mxCell>
        <mxCell id="vaAXvCSD8EfvLSItamrr-33" value="nvarchar(50)" style="shape=partialRectangle;overflow=hidden;connectable=0;fillColor=none;top=0;left=0;bottom=0;right=0;align=left;spacingLeft=6;" vertex="1" parent="vaAXvCSD8EfvLSItamrr-65">
          <mxGeometry x="119" y="56" width="320" height="30" as="geometry">
            <mxRectangle width="320" height="30" as="alternateBounds" />
          </mxGeometry>
        </mxCell>
        <mxCell id="vaAXvCSD8EfvLSItamrr-34" value="nvarchar(50)" style="shape=partialRectangle;overflow=hidden;connectable=0;fillColor=none;top=0;left=0;bottom=0;right=0;align=left;spacingLeft=6;" vertex="1" parent="vaAXvCSD8EfvLSItamrr-65">
          <mxGeometry x="119" y="80" width="320" height="30" as="geometry">
            <mxRectangle width="320" height="30" as="alternateBounds" />
          </mxGeometry>
        </mxCell>
        <mxCell id="vaAXvCSD8EfvLSItamrr-35" value="nvarchar(50)" style="shape=partialRectangle;overflow=hidden;connectable=0;fillColor=none;top=0;left=0;bottom=0;right=0;align=left;spacingLeft=6;" vertex="1" parent="vaAXvCSD8EfvLSItamrr-65">
          <mxGeometry x="120" y="104" width="320" height="30" as="geometry">
            <mxRectangle width="320" height="30" as="alternateBounds" />
          </mxGeometry>
        </mxCell>
        <mxCell id="vaAXvCSD8EfvLSItamrr-36" value="nvarchar(50)" style="shape=partialRectangle;overflow=hidden;connectable=0;fillColor=none;top=0;left=0;bottom=0;right=0;align=left;spacingLeft=6;" vertex="1" parent="vaAXvCSD8EfvLSItamrr-65">
          <mxGeometry x="121" y="129" width="320" height="30" as="geometry">
            <mxRectangle width="320" height="30" as="alternateBounds" />
          </mxGeometry>
        </mxCell>
        <mxCell id="vaAXvCSD8EfvLSItamrr-37" value="nvarchar(50)" style="shape=partialRectangle;overflow=hidden;connectable=0;fillColor=none;top=0;left=0;bottom=0;right=0;align=left;spacingLeft=6;" vertex="1" parent="vaAXvCSD8EfvLSItamrr-65">
          <mxGeometry x="121" y="156" width="320" height="30" as="geometry">
            <mxRectangle width="320" height="30" as="alternateBounds" />
          </mxGeometry>
        </mxCell>
        <mxCell id="vaAXvCSD8EfvLSItamrr-38" value="nvarchar(50)" style="shape=partialRectangle;overflow=hidden;connectable=0;fillColor=none;top=0;left=0;bottom=0;right=0;align=left;spacingLeft=6;" vertex="1" parent="vaAXvCSD8EfvLSItamrr-65">
          <mxGeometry x="119" y="183" width="320" height="30" as="geometry">
            <mxRectangle width="320" height="30" as="alternateBounds" />
          </mxGeometry>
        </mxCell>
        <mxCell id="vaAXvCSD8EfvLSItamrr-40" value="nvarchar(50)" style="shape=partialRectangle;overflow=hidden;connectable=0;fillColor=none;top=0;left=0;bottom=0;right=0;align=left;spacingLeft=6;" vertex="1" parent="vaAXvCSD8EfvLSItamrr-65">
          <mxGeometry x="119" y="213" width="320" height="30" as="geometry">
            <mxRectangle width="320" height="30" as="alternateBounds" />
          </mxGeometry>
        </mxCell>
        <mxCell id="vaAXvCSD8EfvLSItamrr-39" value="nvarchar(50)" style="shape=partialRectangle;overflow=hidden;connectable=0;fillColor=none;top=0;left=0;bottom=0;right=0;align=left;spacingLeft=6;" vertex="1" parent="vaAXvCSD8EfvLSItamrr-65">
          <mxGeometry x="119" y="232" width="320" height="30" as="geometry">
            <mxRectangle width="320" height="30" as="alternateBounds" />
          </mxGeometry>
        </mxCell>
        <mxCell id="vaAXvCSD8EfvLSItamrr-117" value="" style="group" vertex="1" connectable="0" parent="vaAXvCSD8EfvLSItamrr-65">
          <mxGeometry y="57" width="137" height="204" as="geometry" />
        </mxCell>
        <mxCell id="vaAXvCSD8EfvLSItamrr-25" value="_id" style="shape=partialRectangle;overflow=hidden;connectable=0;fillColor=none;top=0;left=0;bottom=0;right=0;" vertex="1" parent="vaAXvCSD8EfvLSItamrr-117">
          <mxGeometry x="41" width="40" height="30" as="geometry">
            <mxRectangle width="80" height="30" as="alternateBounds" />
          </mxGeometry>
        </mxCell>
        <mxCell id="vaAXvCSD8EfvLSItamrr-26" value="barcode" style="shape=partialRectangle;overflow=hidden;connectable=0;fillColor=none;top=0;left=0;bottom=0;right=0;" vertex="1" parent="vaAXvCSD8EfvLSItamrr-117">
          <mxGeometry x="15" y="23" width="110" height="30" as="geometry">
            <mxRectangle width="30" height="30" as="alternateBounds" />
          </mxGeometry>
        </mxCell>
        <mxCell id="vaAXvCSD8EfvLSItamrr-27" value="brandCode" style="shape=partialRectangle;overflow=hidden;connectable=0;fillColor=none;top=0;left=0;bottom=0;right=0;" vertex="1" parent="vaAXvCSD8EfvLSItamrr-117">
          <mxGeometry x="22" y="47" width="110" height="30" as="geometry">
            <mxRectangle width="30" height="30" as="alternateBounds" />
          </mxGeometry>
        </mxCell>
        <mxCell id="vaAXvCSD8EfvLSItamrr-28" value="category" style="shape=partialRectangle;overflow=hidden;connectable=0;fillColor=none;top=0;left=0;bottom=0;right=0;" vertex="1" parent="vaAXvCSD8EfvLSItamrr-117">
          <mxGeometry x="13" y="73" width="110" height="30" as="geometry">
            <mxRectangle width="30" height="30" as="alternateBounds" />
          </mxGeometry>
        </mxCell>
        <mxCell id="vaAXvCSD8EfvLSItamrr-29" value="categoryCode" style="shape=partialRectangle;overflow=hidden;connectable=0;fillColor=none;top=0;left=0;bottom=0;right=0;" vertex="1" parent="vaAXvCSD8EfvLSItamrr-117">
          <mxGeometry x="27" y="99" width="110" height="30" as="geometry">
            <mxRectangle width="30" height="30" as="alternateBounds" />
          </mxGeometry>
        </mxCell>
        <mxCell id="vaAXvCSD8EfvLSItamrr-30" value="cpg" style="shape=partialRectangle;overflow=hidden;connectable=0;fillColor=none;top=0;left=0;bottom=0;right=0;" vertex="1" parent="vaAXvCSD8EfvLSItamrr-117">
          <mxGeometry y="126" width="110" height="30" as="geometry">
            <mxRectangle width="30" height="30" as="alternateBounds" />
          </mxGeometry>
        </mxCell>
        <mxCell id="vaAXvCSD8EfvLSItamrr-31" value="topBrand" style="shape=partialRectangle;overflow=hidden;connectable=0;fillColor=none;top=0;left=0;bottom=0;right=0;" vertex="1" parent="vaAXvCSD8EfvLSItamrr-117">
          <mxGeometry x="33" y="154" width="74" height="30" as="geometry">
            <mxRectangle width="30" height="30" as="alternateBounds" />
          </mxGeometry>
        </mxCell>
        <mxCell id="vaAXvCSD8EfvLSItamrr-32" value="name" style="shape=partialRectangle;overflow=hidden;connectable=0;fillColor=none;top=0;left=0;bottom=0;right=0;" vertex="1" parent="vaAXvCSD8EfvLSItamrr-117">
          <mxGeometry x="6" y="174" width="110" height="30" as="geometry">
            <mxRectangle width="30" height="30" as="alternateBounds" />
          </mxGeometry>
        </mxCell>
        <mxCell id="vaAXvCSD8EfvLSItamrr-109" value="" style="edgeStyle=entityRelationEdgeStyle;fontSize=12;html=1;endArrow=ERzeroToMany;endFill=1;rounded=0;entryX=0.002;entryY=0.035;entryDx=0;entryDy=0;entryPerimeter=0;" edge="1" parent="vaAXvCSD8EfvLSItamrr-64" target="vaAXvCSD8EfvLSItamrr-18">
          <mxGeometry width="100" height="100" relative="1" as="geometry">
            <mxPoint x="420" y="13" as="sourcePoint" />
            <mxPoint x="579.9999999999998" y="13.500000000000071" as="targetPoint" />
          </mxGeometry>
        </mxCell>
        <mxCell id="vaAXvCSD8EfvLSItamrr-66" value="" style="group" vertex="1" connectable="0" parent="1">
          <mxGeometry x="380" y="550" width="419" height="740" as="geometry" />
        </mxCell>
        <mxCell id="vaAXvCSD8EfvLSItamrr-67" value="fact_data" style="shape=table;startSize=30;container=1;collapsible=1;childLayout=tableLayout;fixedRows=1;rowLines=0;fontStyle=1;align=center;resizeLast=1;fillColor=#00FF80;" vertex="1" parent="vaAXvCSD8EfvLSItamrr-66">
          <mxGeometry x="19" width="400" height="730" as="geometry" />
        </mxCell>
        <mxCell id="vaAXvCSD8EfvLSItamrr-68" value="" style="shape=partialRectangle;collapsible=0;dropTarget=0;pointerEvents=0;fillColor=none;points=[[0,0.5],[1,0.5]];portConstraint=eastwest;top=0;left=0;right=0;bottom=1;fontStyle=1" vertex="1" parent="vaAXvCSD8EfvLSItamrr-67">
          <mxGeometry y="30" width="400" height="30" as="geometry" />
        </mxCell>
        <mxCell id="vaAXvCSD8EfvLSItamrr-69" value="var" style="shape=partialRectangle;overflow=hidden;connectable=0;fillColor=none;top=0;left=0;bottom=0;right=0;fontStyle=1" vertex="1" parent="vaAXvCSD8EfvLSItamrr-68">
          <mxGeometry width="170" height="30" as="geometry">
            <mxRectangle width="170" height="30" as="alternateBounds" />
          </mxGeometry>
        </mxCell>
        <mxCell id="vaAXvCSD8EfvLSItamrr-70" value="description" style="shape=partialRectangle;overflow=hidden;connectable=0;fillColor=none;top=0;left=0;bottom=0;right=0;align=left;spacingLeft=6;fontStyle=1" vertex="1" parent="vaAXvCSD8EfvLSItamrr-68">
          <mxGeometry x="170" width="230" height="30" as="geometry">
            <mxRectangle width="230" height="30" as="alternateBounds" />
          </mxGeometry>
        </mxCell>
        <mxCell id="vaAXvCSD8EfvLSItamrr-71" value="" style="shape=partialRectangle;collapsible=0;dropTarget=0;pointerEvents=0;fillColor=none;points=[[0,0.5],[1,0.5]];portConstraint=eastwest;top=0;left=0;right=0;bottom=0;" vertex="1" parent="vaAXvCSD8EfvLSItamrr-67">
          <mxGeometry y="60" width="400" height="670" as="geometry" />
        </mxCell>
        <mxCell id="vaAXvCSD8EfvLSItamrr-72" value="" style="shape=partialRectangle;overflow=hidden;connectable=0;fillColor=none;top=0;left=0;bottom=0;right=0;strokeColor=#000000;" vertex="1" parent="vaAXvCSD8EfvLSItamrr-71">
          <mxGeometry width="170" height="670" as="geometry">
            <mxRectangle width="170" height="670" as="alternateBounds" />
          </mxGeometry>
        </mxCell>
        <mxCell id="vaAXvCSD8EfvLSItamrr-73" value="" style="shape=partialRectangle;overflow=hidden;connectable=0;fillColor=none;top=0;left=0;bottom=0;right=0;align=left;spacingLeft=6;" vertex="1" parent="vaAXvCSD8EfvLSItamrr-71">
          <mxGeometry x="170" width="230" height="670" as="geometry">
            <mxRectangle width="230" height="670" as="alternateBounds" />
          </mxGeometry>
        </mxCell>
        <mxCell id="vaAXvCSD8EfvLSItamrr-74" value="_id" style="shape=partialRectangle;overflow=hidden;connectable=0;fillColor=none;top=0;left=0;bottom=0;right=0;" vertex="1" parent="vaAXvCSD8EfvLSItamrr-66">
          <mxGeometry x="19" y="58" width="40" height="30" as="geometry">
            <mxRectangle width="80" height="30" as="alternateBounds" />
          </mxGeometry>
        </mxCell>
        <mxCell id="vaAXvCSD8EfvLSItamrr-75" value="bonusPointsEarned" style="shape=partialRectangle;overflow=hidden;connectable=0;fillColor=none;top=0;left=0;bottom=0;right=0;" vertex="1" parent="vaAXvCSD8EfvLSItamrr-66">
          <mxGeometry x="22" y="80" width="120" height="30" as="geometry">
            <mxRectangle width="80" height="30" as="alternateBounds" />
          </mxGeometry>
        </mxCell>
        <mxCell id="vaAXvCSD8EfvLSItamrr-76" value="bonusPointsEarnedReason" style="shape=partialRectangle;overflow=hidden;connectable=0;fillColor=none;top=0;left=0;bottom=0;right=0;" vertex="1" parent="vaAXvCSD8EfvLSItamrr-66">
          <mxGeometry x="22" y="106" width="159" height="30" as="geometry">
            <mxRectangle width="80" height="30" as="alternateBounds" />
          </mxGeometry>
        </mxCell>
        <mxCell id="vaAXvCSD8EfvLSItamrr-77" value="createDate" style="shape=partialRectangle;overflow=hidden;connectable=0;fillColor=none;top=0;left=0;bottom=0;right=0;" vertex="1" parent="vaAXvCSD8EfvLSItamrr-66">
          <mxGeometry x="22" y="130" width="79" height="30" as="geometry">
            <mxRectangle width="80" height="30" as="alternateBounds" />
          </mxGeometry>
        </mxCell>
        <mxCell id="vaAXvCSD8EfvLSItamrr-78" value="finishedDate" style="shape=partialRectangle;overflow=hidden;connectable=0;fillColor=none;top=0;left=0;bottom=0;right=0;" vertex="1" parent="vaAXvCSD8EfvLSItamrr-66">
          <mxGeometry x="22" y="154" width="91" height="30" as="geometry">
            <mxRectangle width="80" height="30" as="alternateBounds" />
          </mxGeometry>
        </mxCell>
        <mxCell id="vaAXvCSD8EfvLSItamrr-79" value="modifyDate" style="shape=partialRectangle;overflow=hidden;connectable=0;fillColor=none;top=0;left=0;bottom=0;right=0;" vertex="1" parent="vaAXvCSD8EfvLSItamrr-66">
          <mxGeometry x="22" y="180" width="79" height="30" as="geometry">
            <mxRectangle width="80" height="30" as="alternateBounds" />
          </mxGeometry>
        </mxCell>
        <mxCell id="vaAXvCSD8EfvLSItamrr-80" value="pointsAwardedDate" style="shape=partialRectangle;overflow=hidden;connectable=0;fillColor=none;top=0;left=0;bottom=0;right=0;" vertex="1" parent="vaAXvCSD8EfvLSItamrr-66">
          <mxGeometry x="16.5" y="206" width="139" height="30" as="geometry">
            <mxRectangle width="80" height="30" as="alternateBounds" />
          </mxGeometry>
        </mxCell>
        <mxCell id="vaAXvCSD8EfvLSItamrr-81" value="pointsEarned" style="shape=partialRectangle;overflow=hidden;connectable=0;fillColor=none;top=0;left=0;bottom=0;right=0;" vertex="1" parent="vaAXvCSD8EfvLSItamrr-66">
          <mxGeometry y="233" width="139" height="30" as="geometry">
            <mxRectangle width="80" height="30" as="alternateBounds" />
          </mxGeometry>
        </mxCell>
        <mxCell id="vaAXvCSD8EfvLSItamrr-82" value="purchaseDate" style="shape=partialRectangle;overflow=hidden;connectable=0;fillColor=none;top=0;left=0;bottom=0;right=0;" vertex="1" parent="vaAXvCSD8EfvLSItamrr-66">
          <mxGeometry x="1.5" y="260" width="139" height="30" as="geometry">
            <mxRectangle width="80" height="30" as="alternateBounds" />
          </mxGeometry>
        </mxCell>
        <mxCell id="vaAXvCSD8EfvLSItamrr-83" value="purchasedItemCount" style="shape=partialRectangle;overflow=hidden;connectable=0;fillColor=none;top=0;left=0;bottom=0;right=0;" vertex="1" parent="vaAXvCSD8EfvLSItamrr-66">
          <mxGeometry x="3.5" y="286" width="167.5" height="30" as="geometry">
            <mxRectangle width="80" height="30" as="alternateBounds" />
          </mxGeometry>
        </mxCell>
        <mxCell id="vaAXvCSD8EfvLSItamrr-84" value="rewardsReceiptItemList" style="shape=partialRectangle;overflow=hidden;connectable=0;fillColor=none;top=0;left=0;bottom=0;right=0;" vertex="1" parent="vaAXvCSD8EfvLSItamrr-66">
          <mxGeometry x="10.5" y="310" width="167.5" height="30" as="geometry">
            <mxRectangle width="80" height="30" as="alternateBounds" />
          </mxGeometry>
        </mxCell>
        <mxCell id="vaAXvCSD8EfvLSItamrr-85" value="rewardsReceiptStatus" style="shape=partialRectangle;overflow=hidden;connectable=0;fillColor=none;top=0;left=0;bottom=0;right=0;" vertex="1" parent="vaAXvCSD8EfvLSItamrr-66">
          <mxGeometry x="7.5" y="333" width="167.5" height="30" as="geometry">
            <mxRectangle width="80" height="30" as="alternateBounds" />
          </mxGeometry>
        </mxCell>
        <mxCell id="vaAXvCSD8EfvLSItamrr-86" value="totalSpent" style="shape=partialRectangle;overflow=hidden;connectable=0;fillColor=none;top=0;left=0;bottom=0;right=0;" vertex="1" parent="vaAXvCSD8EfvLSItamrr-66">
          <mxGeometry x="7.5" y="356" width="103.5" height="30" as="geometry">
            <mxRectangle width="80" height="30" as="alternateBounds" />
          </mxGeometry>
        </mxCell>
        <mxCell id="vaAXvCSD8EfvLSItamrr-87" value="userId" style="shape=partialRectangle;overflow=hidden;connectable=0;fillColor=none;top=0;left=0;bottom=0;right=0;" vertex="1" parent="vaAXvCSD8EfvLSItamrr-66">
          <mxGeometry x="20" y="383" width="60" height="30" as="geometry">
            <mxRectangle width="80" height="30" as="alternateBounds" />
          </mxGeometry>
        </mxCell>
        <mxCell id="vaAXvCSD8EfvLSItamrr-94" value="state" style="shape=partialRectangle;overflow=hidden;connectable=0;fillColor=none;top=0;left=0;bottom=0;right=0;" vertex="1" parent="vaAXvCSD8EfvLSItamrr-66">
          <mxGeometry x="31" y="405" width="30" height="30" as="geometry">
            <mxRectangle width="30" height="30" as="alternateBounds" />
          </mxGeometry>
        </mxCell>
        <mxCell id="vaAXvCSD8EfvLSItamrr-93" value="active" style="shape=partialRectangle;overflow=hidden;connectable=0;fillColor=none;top=0;left=0;bottom=0;right=0;" vertex="1" parent="vaAXvCSD8EfvLSItamrr-66">
          <mxGeometry x="30" y="497" width="30" height="30" as="geometry">
            <mxRectangle width="30" height="30" as="alternateBounds" />
          </mxGeometry>
        </mxCell>
        <mxCell id="vaAXvCSD8EfvLSItamrr-91" value="createdDate" style="shape=partialRectangle;overflow=hidden;connectable=0;fillColor=none;top=0;left=0;bottom=0;right=0;" vertex="1" parent="vaAXvCSD8EfvLSItamrr-66">
          <mxGeometry x="10.5" y="430" width="110" height="30" as="geometry">
            <mxRectangle width="30" height="30" as="alternateBounds" />
          </mxGeometry>
        </mxCell>
        <mxCell id="vaAXvCSD8EfvLSItamrr-90" value="lastLogin" style="shape=partialRectangle;overflow=hidden;connectable=0;fillColor=none;top=0;left=0;bottom=0;right=0;" vertex="1" parent="vaAXvCSD8EfvLSItamrr-66">
          <mxGeometry x="25" y="458" width="60" height="20" as="geometry">
            <mxRectangle width="30" height="30" as="alternateBounds" />
          </mxGeometry>
        </mxCell>
        <mxCell id="vaAXvCSD8EfvLSItamrr-92" value="role" style="shape=partialRectangle;overflow=hidden;connectable=0;fillColor=none;top=0;left=0;bottom=0;right=0;" vertex="1" parent="vaAXvCSD8EfvLSItamrr-66">
          <mxGeometry x="27.5" y="483" width="30" height="14" as="geometry">
            <mxRectangle width="30" height="30" as="alternateBounds" />
          </mxGeometry>
        </mxCell>
        <mxCell id="vaAXvCSD8EfvLSItamrr-97" value="nvarchar(50)" style="shape=partialRectangle;overflow=hidden;connectable=0;fillColor=none;top=0;left=0;bottom=0;right=0;align=left;spacingLeft=6;" vertex="1" parent="1">
          <mxGeometry x="435" y="177" width="320" height="30" as="geometry">
            <mxRectangle width="320" height="30" as="alternateBounds" />
          </mxGeometry>
        </mxCell>
        <mxCell id="vaAXvCSD8EfvLSItamrr-111" value="" style="edgeStyle=entityRelationEdgeStyle;fontSize=12;html=1;endArrow=ERmandOne;startArrow=ERmandOne;rounded=0;exitX=0.985;exitY=0.083;exitDx=0;exitDy=0;exitPerimeter=0;entryX=-0.003;entryY=0.031;entryDx=0;entryDy=0;entryPerimeter=0;" edge="1" parent="1" source="C-vyLk0tnHw3VtMMgP7b-23" target="vaAXvCSD8EfvLSItamrr-41">
          <mxGeometry width="100" height="100" relative="1" as="geometry">
            <mxPoint x="160" y="170" as="sourcePoint" />
            <mxPoint x="260" y="70" as="targetPoint" />
          </mxGeometry>
        </mxCell>
        <mxCell id="vaAXvCSD8EfvLSItamrr-114" value="" style="endArrow=none;html=1;rounded=0;entryX=0;entryY=0;entryDx=0;entryDy=0;exitX=0.05;exitY=0.043;exitDx=0;exitDy=0;exitPerimeter=0;" edge="1" parent="1" source="C-vyLk0tnHw3VtMMgP7b-23" target="vaAXvCSD8EfvLSItamrr-67">
          <mxGeometry relative="1" as="geometry">
            <mxPoint x="67" y="510" as="sourcePoint" />
            <mxPoint x="227" y="510" as="targetPoint" />
            <Array as="points">
              <mxPoint x="-140" y="100" />
              <mxPoint x="-160" y="400" />
            </Array>
          </mxGeometry>
        </mxCell>
        <mxCell id="vaAXvCSD8EfvLSItamrr-115" value="" style="endArrow=none;html=1;rounded=0;exitX=0.003;exitY=0.037;exitDx=0;exitDy=0;exitPerimeter=0;entryX=0;entryY=0;entryDx=0;entryDy=0;" edge="1" parent="1" source="vaAXvCSD8EfvLSItamrr-41" target="vaAXvCSD8EfvLSItamrr-67">
          <mxGeometry relative="1" as="geometry">
            <mxPoint x="260" y="100" as="sourcePoint" />
            <mxPoint x="263" y="510" as="targetPoint" />
            <Array as="points">
              <mxPoint x="190" y="170" />
              <mxPoint x="160" y="450" />
            </Array>
          </mxGeometry>
        </mxCell>
        <mxCell id="vaAXvCSD8EfvLSItamrr-116" value="" style="endArrow=none;html=1;rounded=0;entryX=0.03;entryY=0.006;entryDx=0;entryDy=0;entryPerimeter=0;" edge="1" parent="1" target="vaAXvCSD8EfvLSItamrr-67">
          <mxGeometry relative="1" as="geometry">
            <mxPoint x="800" y="90" as="sourcePoint" />
            <mxPoint x="270" y="510" as="targetPoint" />
            <Array as="points">
              <mxPoint x="790" y="160" />
              <mxPoint x="790" y="230" />
              <mxPoint x="790" y="490" />
            </Array>
          </mxGeometry>
        </mxCell>
        <mxCell id="vaAXvCSD8EfvLSItamrr-118" value="" style="group" vertex="1" connectable="0" parent="1">
          <mxGeometry x="357" y="1070" width="137" height="204" as="geometry" />
        </mxCell>
        <mxCell id="vaAXvCSD8EfvLSItamrr-119" value="brand_id" style="shape=partialRectangle;overflow=hidden;connectable=0;fillColor=none;top=0;left=0;bottom=0;right=0;" vertex="1" parent="vaAXvCSD8EfvLSItamrr-118">
          <mxGeometry x="41" width="69" height="30" as="geometry">
            <mxRectangle width="80" height="30" as="alternateBounds" />
          </mxGeometry>
        </mxCell>
        <mxCell id="vaAXvCSD8EfvLSItamrr-120" value="barcode" style="shape=partialRectangle;overflow=hidden;connectable=0;fillColor=none;top=0;left=0;bottom=0;right=0;" vertex="1" parent="vaAXvCSD8EfvLSItamrr-118">
          <mxGeometry x="15" y="23" width="110" height="30" as="geometry">
            <mxRectangle width="30" height="30" as="alternateBounds" />
          </mxGeometry>
        </mxCell>
        <mxCell id="vaAXvCSD8EfvLSItamrr-121" value="brandCode" style="shape=partialRectangle;overflow=hidden;connectable=0;fillColor=none;top=0;left=0;bottom=0;right=0;" vertex="1" parent="vaAXvCSD8EfvLSItamrr-118">
          <mxGeometry x="22" y="47" width="110" height="30" as="geometry">
            <mxRectangle width="30" height="30" as="alternateBounds" />
          </mxGeometry>
        </mxCell>
        <mxCell id="vaAXvCSD8EfvLSItamrr-122" value="category" style="shape=partialRectangle;overflow=hidden;connectable=0;fillColor=none;top=0;left=0;bottom=0;right=0;" vertex="1" parent="vaAXvCSD8EfvLSItamrr-118">
          <mxGeometry x="13" y="73" width="110" height="30" as="geometry">
            <mxRectangle width="30" height="30" as="alternateBounds" />
          </mxGeometry>
        </mxCell>
        <mxCell id="vaAXvCSD8EfvLSItamrr-123" value="categoryCode" style="shape=partialRectangle;overflow=hidden;connectable=0;fillColor=none;top=0;left=0;bottom=0;right=0;" vertex="1" parent="vaAXvCSD8EfvLSItamrr-118">
          <mxGeometry x="27" y="99" width="110" height="30" as="geometry">
            <mxRectangle width="30" height="30" as="alternateBounds" />
          </mxGeometry>
        </mxCell>
        <mxCell id="vaAXvCSD8EfvLSItamrr-124" value="cpg" style="shape=partialRectangle;overflow=hidden;connectable=0;fillColor=none;top=0;left=0;bottom=0;right=0;" vertex="1" parent="vaAXvCSD8EfvLSItamrr-118">
          <mxGeometry y="126" width="110" height="30" as="geometry">
            <mxRectangle width="30" height="30" as="alternateBounds" />
          </mxGeometry>
        </mxCell>
        <mxCell id="vaAXvCSD8EfvLSItamrr-125" value="topBrand" style="shape=partialRectangle;overflow=hidden;connectable=0;fillColor=none;top=0;left=0;bottom=0;right=0;" vertex="1" parent="vaAXvCSD8EfvLSItamrr-118">
          <mxGeometry x="33" y="154" width="74" height="30" as="geometry">
            <mxRectangle width="30" height="30" as="alternateBounds" />
          </mxGeometry>
        </mxCell>
        <mxCell id="vaAXvCSD8EfvLSItamrr-126" value="name" style="shape=partialRectangle;overflow=hidden;connectable=0;fillColor=none;top=0;left=0;bottom=0;right=0;" vertex="1" parent="vaAXvCSD8EfvLSItamrr-118">
          <mxGeometry x="6" y="174" width="110" height="30" as="geometry">
            <mxRectangle width="30" height="30" as="alternateBounds" />
          </mxGeometry>
        </mxCell>
      </root>
    </mxGraphModel>
  </diagram>
</mxfile>
